# xmcd
#
# Track frame offsets:
#	150
#	19070
#	37644
#	54287
#	71935
#	89987
#	107955
#	126725
#	145299
#	161951
#	179608
#	197362
#
# Disc length: 2869 seconds
#
# Revision: 1
# Processed by: cddbd v1.5.2PL0 Copyright (c) Steve Scherf et al.
# Submitted via: audiograbber 1.83.01
#
DISCID=b60b330c
DTITLE=ChartBuster - CB20608
DYEAR=2007
DGENRE=Karaoke
TTITLE0=Michelle Wright - New Kind Of Love (Vocal Version)
TTITLE1=Michelle Wright - Take It Like A Man (Vocal Version)
TTITLE2=Michelle Wright - One Time Around (Vocal Version)
TTITLE3=Michelle Wright - He Would Be Sixteen (Vocal Version)
TTITLE4=Michelle Wright - Change (Vocal Version)
TTITLE5=Michelle Wright - One Good Man (Vocal Version)
TTITLE6=Michelle Wright - New Kind Of Love
TTITLE7=Michelle Wright - Take It Like A Man
TTITLE8=Michelle Wright - One Time Around
TTITLE9=Michelle Wright - He Would Be Sixteen
TTITLE10=Michelle Wright - Change
TTITLE11=Michelle Wright - One Good Man
EXTD=
EXTT0=
EXTT1=
EXTT2=
EXTT3=
EXTT4=
EXTT5=
EXTT6=
EXTT7=
EXTT8=
EXTT9=
EXTT10=
EXTT11=
PLAYORDER=
